# xmcd
#
# Track frame offsets:
#	150
#	16565
#	31832
#	65915
#	87307
#
# Disc length: 1448 seconds
#
# Revision: 0
# Processed by: cddbd v1.5.2PL0 Copyright (c) Steve Scherf et al.
# Submitted via: EasyCDDAExtractor 2010.4.0.0
#
DISCID=3305a605
DTITLE=Matiloe - -
DYEAR=2000
DGENRE=Dance
TTITLE0=We Know What To Do (DJ Anhelm Goes Hype Remix)
TTITLE1=We Know What To Do (Original Mix)
TTITLE2=We Know What To Do (P.S.L.'s Fantastic Phaser Trance Mix)
TTITLE3=We Know What To Do (Party Extended)
TTITLE4=We Know What To Do (Party Instrumental Extended Mix)
EXTD=
EXTT0=
EXTT1=
EXTT2=
EXTT3=
EXTT4=
PLAYORDER=
